{"title":"The.Girlfriend.Experience.S01.720p.BluRay.x264-DEMAND Season One","uid":15580397,"size":15232075698,"categoryP":"video","categoryS":"hd___tv_shows","magnet":"?xt=urn:btih:b6d3fb0ce3840cd8dd83b5af6912cb8caa5fd7f0&amp;dn=The.Girlfriend.Experience.S01.720p.BluRay.x264-DEMAND+Season+One&amp;tr=udp%3A%2F%2Ftracker.leechers-paradise.org%3A6969&amp;tr=udp%3A%2F%2Fzer0day.ch%3A1337&amp;tr=udp%3A%2F%2Fopen.demonii.com%3A1337&amp;tr=udp%3A%2F%2Ftracker.coppersurfer.tk%3A6969&amp;tr=udp%3A%2F%2Fexodus.desync.com%3A6969","seeders":5,"leechers":3,"uploader":"GoodFilms","files":41,"time":1471397520,"description":"http://www.imdb.com/title/tt3846642/\r\n\r\nVideo\r\nID                                       : 1\r\nFormat                                   : AVC\r\nFormat/Info                              : Advanced Video Codec\r\nFormat profile                           :   \r\nFormat settings, CABAC                   : Yes\r\nFormat settings, ReFrames                : 5 frames\r\nCodec ID                                 : V_MPEG4/ISO/AVC\r\nDuration                                 : 28mn 50s\r\nBit rate                                 : 4 766 Kbps\r\nWidth                                    : 1 280 pixels\r\nHeight                                   : 720 pixels\r\nDisplay aspect ratio                     : 16:9\r\nFrame rate mode                          : Constant\r\nFrame rate                               : 23.976 fps\r\nColor space                              : YUV\r\nChroma subsampling                       : 4:2:0\r\nBit depth                                : 8 bits\r\nScan type                                : Progressive\r\nBits/(Pixel*Frame)                       : 0.216\r\nStream size                              : 982 MiB (88%)\r\nWriting library                          : x264 core 148 r2692 64f4e24\r\nLanguage                                 : English\r\nDefault                                  : Yes\r\nForced                                   : No\r\n\r\nAudio\r\nID                                       : 2\r\nFormat                                   : AC-3\r\nFormat/Info                              : Audio Coding 3\r\nMode extension                           : CM (complete main)\r\nFormat settings, Endianness              : Big\r\nCodec ID                                 : A_AC3\r\nDuration                                 : 28mn 50s\r\nBit rate mode                            : Constant\r\nBit rate                                 : 640 Kbps\r\nChannel(s)                               : 6 channels\r\nChannel positions                        : Front: L C R, Side: L R, LFE\r\nSampling rate                            : 48.0 KHz\r\nFrame rate                               : 31.250 fps (1536 spf)\r\nCompression mode                         : Lossy\r\nStream size                              : 132 MiB (12%)\r\nLanguage                                 : English\r\nDefault                                  : Yes\r\nForced                                   : No\r\n\r\nMenu\r\n00:00:00.000                             : en:00:00:00.000\r\n00:00:37.037                             : en:00:00:37.037\r\n00:01:29.756                             : en:00:01:29.756\r\n00:10:40.473                             : en:00:10:40.473\r\n00:19:42.181                             : en:00:19:42.181\r\n00:27:18.303                             : en:00:27:18.303","torrent":{"xt":"urn:btih:b6d3fb0ce3840cd8dd83b5af6912cb8caa5fd7f0","amp;dn":"The.Girlfriend.Experience.S01.720p.BluRay.x264-DEMAND+Season+One","amp;tr":["udp%3A%2F%2Ftracker.leechers-paradise.org%3A6969","udp%3A%2F%2Fzer0day.ch%3A1337","udp%3A%2F%2Fopen.demonii.com%3A1337","udp%3A%2F%2Ftracker.coppersurfer.tk%3A6969","udp%3A%2F%2Fexodus.desync.com%3A6969"],"infoHash":"b6d3fb0ce3840cd8dd83b5af6912cb8caa5fd7f0","infoHashBuffer":{"type":"Buffer","data":[182,211,251,12,227,132,12,216,221,131,181,175,105,18,203,140,170,95,215,240]},"announce":[],"urlList":[]}}